<svg width="26" height="26" viewBox="0 0 26 26" fill="none" xmlns="http://www.w3.org/2000/svg">
<path d="M10.7213 10.5598C11.426 10.5598 11.9973 9.98853 11.9973 9.28381C11.9973 8.5791 11.426 8.00781 10.7213 8.00781C10.0166 8.00781 9.44531 8.5791 9.44531 9.28381C9.44531 9.98853 10.0166 10.5598 10.7213 10.5598Z" fill="#1BBF00"/>
<path d="M15.5338 17.9309C16.2385 17.9309 16.8098 17.3596 16.8098 16.6549C16.8098 15.9502 16.2385 15.3789 15.5338 15.3789C14.8291 15.3789 14.2578 15.9502 14.2578 16.6549C14.2578 17.3596 14.8291 17.9309 15.5338 17.9309Z" fill="#1BBF00"/>
<path d="M25.1748 16.0592L23.7288 13.1112L25.1748 10.1632C25.3244 9.85345 25.3489 9.49801 25.2434 9.17065C25.1378 8.84329 24.9102 8.56917 24.6078 8.40519L21.7148 6.87419L21.1478 3.64219C21.0899 3.30135 20.9 2.99709 20.6191 2.79545C20.3383 2.59381 19.9893 2.51107 19.6478 2.56519L16.3878 3.01919L14.0338 0.751192C13.913 0.629797 13.7694 0.533466 13.6113 0.467734C13.4532 0.402002 13.2836 0.368164 13.1123 0.368164C12.9411 0.368164 12.7715 0.402002 12.6134 0.467734C12.4552 0.533466 12.3116 0.629797 12.1908 0.751192L9.83783 3.01819L6.60583 2.53619C6.26493 2.48604 5.91789 2.57035 5.638 2.77131C5.35811 2.97227 5.16728 3.27415 5.10583 3.61319L4.53883 6.84519L1.64583 8.40519C1.34347 8.56917 1.11587 8.84329 1.01029 9.17065C0.904709 9.49801 0.929253 9.85345 1.07883 10.1632L2.52483 13.1112L1.07883 16.0592C0.92895 16.369 0.904242 16.7247 1.00984 17.0523C1.11544 17.3799 1.34321 17.6542 1.64583 17.8182L4.53783 19.3492L5.10483 22.5812C5.1627 22.922 5.35268 23.2263 5.63351 23.4279C5.91434 23.6296 6.26337 23.7123 6.60483 23.6582L9.86483 23.2042L12.2178 25.5042C12.3386 25.6256 12.4822 25.7219 12.6404 25.7876C12.7985 25.8534 12.9681 25.8872 13.1393 25.8872C13.3106 25.8872 13.4802 25.8534 13.6383 25.7876C13.7964 25.7219 13.94 25.6256 14.0608 25.5042L16.4138 23.2042L19.6458 23.6862C19.9867 23.7363 20.3338 23.652 20.6137 23.4511C20.8935 23.2501 21.0844 22.9482 21.1458 22.6092L21.7128 19.3772L24.6048 17.8462C24.9074 17.6748 25.1341 17.3956 25.2398 17.0643C25.3454 16.733 25.3222 16.3741 25.1748 16.0592ZM8.30783 9.28419C8.30783 8.80754 8.44917 8.34159 8.71398 7.94527C8.9788 7.54895 9.35519 7.24005 9.79556 7.05764C10.2359 6.87524 10.7205 6.82751 11.188 6.9205C11.6555 7.01349 12.0849 7.24302 12.422 7.58006C12.759 7.91711 12.9885 8.34653 13.0815 8.81402C13.1745 9.28152 13.1268 9.76609 12.9444 10.2065C12.762 10.6468 12.4531 11.0232 12.0568 11.288C11.6604 11.5528 11.1945 11.6942 10.7178 11.6942C10.4013 11.6945 10.0878 11.6323 9.79525 11.5113C9.50273 11.3903 9.23695 11.2127 9.01311 10.9889C8.78927 10.7651 8.61176 10.4993 8.49074 10.2068C8.36972 9.91426 8.30756 9.60075 8.30783 9.28419ZM10.0368 17.9842C9.98272 18.0533 9.91391 18.1096 9.83539 18.1488C9.75687 18.1881 9.6706 18.2094 9.58283 18.2112C9.46 18.2129 9.34019 18.1731 9.24283 18.0982C9.12535 18.0059 9.04803 17.8718 9.02698 17.7239C9.00593 17.576 9.04277 17.4256 9.12983 17.3042L16.4718 7.66519C16.5636 7.54936 16.6969 7.47392 16.8435 7.45494C16.99 7.43596 17.1382 7.47494 17.2564 7.56358C17.3746 7.65222 17.4536 7.78352 17.4765 7.92951C17.4993 8.0755 17.4643 8.22465 17.3788 8.34519L10.0368 17.9842ZM15.5368 19.0612C15.0602 19.0612 14.5942 18.9198 14.1979 18.655C13.8016 18.3902 13.4927 18.0138 13.3103 17.5735C13.1279 17.1331 13.0801 16.6485 13.1731 16.181C13.2661 15.7135 13.4957 15.2841 13.8327 14.9471C14.1697 14.61 14.5992 14.3805 15.0667 14.2875C15.5342 14.1945 16.0187 14.2422 16.4591 14.4246C16.8995 14.607 17.2759 14.9159 17.5407 15.3123C17.8055 15.7086 17.9468 16.1745 17.9468 16.6512C17.9475 16.968 17.8856 17.2818 17.7648 17.5747C17.6439 17.8676 17.4665 18.1337 17.2426 18.3578C17.0187 18.582 16.7528 18.7598 16.4601 18.881C16.1674 19.0022 15.8536 19.0645 15.5368 19.0642V19.0612Z" fill="#1BBF00"/>
</svg>
