<svg width="19" height="24" viewBox="0 0 19 24" fill="none" xmlns="http://www.w3.org/2000/svg">
<path fill-rule="evenodd" clip-rule="evenodd" d="M4.39062 9.03763C4.39062 8.15331 4.67762 7.28884 5.21532 6.55355C5.75302 5.81826 6.51727 5.24518 7.41143 4.90676C8.30559 4.56834 9.2895 4.4798 10.2387 4.65232C11.188 4.82484 12.0599 5.25069 12.7443 5.876C13.4286 6.50131 13.8947 7.29801 14.0835 8.16534C14.2723 9.03267 14.1754 9.93168 13.805 10.7487C13.4347 11.5657 12.8074 12.264 12.0027 12.7553C11.198 13.2466 10.2519 13.5089 9.28407 13.5089C7.98632 13.5086 6.7418 13.0375 5.82415 12.199C4.90651 11.3605 4.39087 10.2234 4.39062 9.03763ZM9.28407 7.00395C8.84405 7.00378 8.41385 7.12284 8.04789 7.34608C7.68192 7.56931 7.39662 7.88668 7.22806 8.25807C7.0595 8.62946 7.01525 9.03818 7.10092 9.43254C7.18658 9.82691 7.39831 10.1892 7.70933 10.4736C8.02034 10.758 8.41667 10.9518 8.8482 11.0304C9.27974 11.109 9.72709 11.0689 10.1337 10.9152C10.5403 10.7615 10.8879 10.5011 11.1325 10.1669C11.3771 9.83267 11.5078 9.43969 11.5079 9.03763C11.5079 8.49864 11.2737 7.9817 10.8566 7.6005C10.4396 7.21929 9.87396 7.00418 9.28407 7.00395Z" fill="#A1A1A1"/>
<path fill-rule="evenodd" clip-rule="evenodd" d="M0.4375 9.44009C0.4375 4.23888 4.38499 0 9.28214 0C14.1793 0 18.1268 4.23888 18.1268 9.44009C17.9904 12.4746 17.1747 15.4513 15.73 18.1865C15.057 19.5452 14.1484 20.7957 13.0391 21.8897C12.5677 22.3855 11.9924 22.79 11.3471 23.0793C10.7019 23.3687 9.99975 23.537 9.28214 23.5745C8.56453 23.537 7.86239 23.3687 7.21713 23.0793C6.57188 22.79 5.99656 22.3855 5.52513 21.8897C4.41592 20.7957 3.50729 19.5452 2.83429 18.1865C1.38911 15.4503 0.573379 12.4724 0.4375 9.43672V9.44009ZM9.28214 2.43839C5.68418 2.43839 2.7446 5.56453 2.7446 9.44009C2.88322 12.0674 3.60027 14.6421 4.85288 17.0104C5.40372 18.1288 6.14737 19.1591 7.05549 20.0622C7.33056 20.368 7.66953 20.6207 8.05262 20.8055C8.43572 20.9903 8.85525 21.1035 9.28676 21.1386C9.71827 21.1035 10.1378 20.9903 10.5209 20.8055C10.904 20.6207 11.243 20.368 11.518 20.0622C12.4235 19.1587 13.1647 18.1283 13.7132 17.0104C14.9658 14.6421 15.6829 12.0674 15.8215 9.44009C15.8197 5.56115 12.881 2.43923 9.28214 2.43923V2.43839Z" fill="#A1A1A1"/>
</svg>
