<svg width="52" height="44" viewBox="0 0 52 44" fill="none" xmlns="http://www.w3.org/2000/svg">
<path d="M25.0117 0V15.2109C25.0117 16.5573 24.9544 17.8607 24.8398 19.1211C24.7253 20.3815 24.5462 21.6133 24.3027 22.8164C24.0592 24.0195 23.7656 25.194 23.4219 26.3398C23.0495 27.457 22.6341 28.5599 22.1758 29.6484C21.7174 30.737 21.1732 31.8255 20.543 32.9141C19.9128 34.0026 19.2109 35.0911 18.4375 36.1797C17.6641 37.2682 16.819 38.3568 15.9023 39.4453C14.957 40.5339 13.9544 41.6224 12.8945 42.7109L11.6484 44L0.949219 35.4922L2.45312 33.9023C4.08594 32.2695 5.43945 30.6797 6.51367 29.1328C7.58789 27.5859 8.42578 26.0964 9.02734 24.6641H0.0898438V0H25.0117ZM11.7344 22.6875C11.6484 23.0026 11.5553 23.3249 11.4551 23.6543C11.3548 23.9837 11.2474 24.3203 11.1328 24.6641C10.5885 26.1536 9.82943 27.6647 8.85547 29.1973C7.88151 30.7298 6.67839 32.2839 5.24609 33.8594C5.01693 34.0885 4.78776 34.3249 4.55859 34.5684C4.32943 34.8118 4.10026 35.0482 3.87109 35.2773L11.4766 41.3359C12.5078 40.276 13.4818 39.2161 14.3984 38.1562C15.2865 37.0964 16.1029 36.0436 16.8477 34.998C17.5924 33.9525 18.2513 32.9284 18.8242 31.9258C19.3971 30.8945 19.8984 29.8776 20.3281 28.875C20.7865 27.8724 21.1875 26.8268 21.5312 25.7383C21.875 24.6784 22.1543 23.5755 22.3691 22.4297C22.584 21.2839 22.7487 20.1094 22.8633 18.9062C22.9779 17.7318 23.0352 16.5 23.0352 15.2109V1.97656H2.06641V22.6875H11.7344ZM51.9102 0V15.2109C51.9102 16.5573 51.8529 17.8607 51.7383 19.1211C51.6237 20.3815 51.4447 21.6133 51.2012 22.8164C50.9577 24.0195 50.6641 25.194 50.3203 26.3398C49.9479 27.457 49.5182 28.5599 49.0312 29.6484C48.5729 30.737 48.043 31.8255 47.4414 32.9141C46.8112 34.0026 46.1094 35.0911 45.3359 36.1797C44.5625 37.2682 43.7031 38.3568 42.7578 39.4453C41.8411 40.5339 40.8385 41.6224 39.75 42.7109L38.5039 44L27.8047 35.4922L29.3516 33.9023C30.9557 32.2695 32.3021 30.6797 33.3906 29.1328C34.4792 27.5859 35.3099 26.0964 35.8828 24.6641H26.9883V0H51.9102ZM38.5898 22.6875C38.5326 23.0026 38.4538 23.3249 38.3535 23.6543C38.2533 23.9837 38.1458 24.3203 38.0312 24.6641C37.487 26.1536 36.7207 27.6647 35.7324 29.1973C34.7441 30.7298 33.5482 32.2839 32.1445 33.8594C31.9154 34.0885 31.6862 34.3249 31.457 34.5684C31.2279 34.8118 30.9987 35.0482 30.7695 35.2773L38.332 41.3359C39.3919 40.276 40.3659 39.2161 41.2539 38.1562C42.1706 37.0964 42.9941 36.0436 43.7246 34.998C44.4551 33.9525 45.1211 32.9284 45.7227 31.9258C46.2956 30.8945 46.7969 29.8776 47.2266 28.875C47.6849 27.8724 48.0859 26.8268 48.4297 25.7383C48.7448 24.6784 49.0169 23.5755 49.2461 22.4297C49.4753 21.2839 49.6471 20.1094 49.7617 18.9062C49.8763 17.7318 49.9336 16.5 49.9336 15.2109V1.97656H28.9648V22.6875H38.5898Z" fill="#181818"/>
</svg>
