<svg width="17" height="18" viewBox="0 0 17 18" fill="none" xmlns="http://www.w3.org/2000/svg">
<path d="M14.7765 4.83787C12.4743 4.60972 10.1582 4.49219 7.84907 4.49219C6.48018 4.49219 5.11129 4.56132 3.7424 4.69959L2.33203 4.83787" stroke="#0D0C0D" stroke-width="1.2" stroke-linecap="round" stroke-linejoin="round"/>
<path d="M6.13477 4.13976L6.28686 3.23408C6.39748 2.57729 6.48044 2.08643 7.64884 2.08643H9.4602C10.6286 2.08643 10.7185 2.60494 10.8222 3.24099L10.9743 4.13976" stroke="#0D0C0D" stroke-width="1.2" stroke-linecap="round" stroke-linejoin="round"/>
<path d="M13.29 7.02246L12.8406 13.9844C12.7645 15.0699 12.7023 15.9133 10.7734 15.9133H6.3349C4.40601 15.9133 4.34379 15.0699 4.26774 13.9844L3.81836 7.02246" stroke="#0D0C0D" stroke-width="1.2" stroke-linecap="round" stroke-linejoin="round"/>
<path d="M7.40039 12.1108H9.70261" stroke="#0D0C0D" stroke-width="1.2" stroke-linecap="round" stroke-linejoin="round"/>
<path d="M6.82617 9.3457H10.283" stroke="#0D0C0D" stroke-width="1.2" stroke-linecap="round" stroke-linejoin="round"/>
</svg>
