<svg width="147" height="44" viewBox="0 0 147 44" fill="none" xmlns="http://www.w3.org/2000/svg">
<path d="M13.2844 23.1273C12.6369 23.3787 11.9057 23.1045 11.5857 22.4875L5.64434 11.0465C4.95117 9.69062 5.47676 8.03769 6.83262 7.34453C6.91641 7.30644 6.99258 7.26836 7.07637 7.23027C8.60742 6.61328 10.2908 7.51211 10.7174 9.06601L10.725 9.08887L14.0994 21.5125C14.2746 22.1752 13.9242 22.876 13.2844 23.1273Z" fill="#F98500"/>
<path d="M12.9645 17.3611L11.2811 18.0238C10.9688 18.1381 10.6184 17.9857 10.4889 17.6734C10.367 17.3611 10.5193 17.0031 10.8316 16.8813L12.6369 16.1729L12.9645 17.3611Z" fill="#FA6D00"/>
<path d="M13.6195 19.7453L12.1723 20.2861C11.86 20.3928 11.5172 20.248 11.3801 19.9357C11.2582 19.6234 11.4105 19.2654 11.7305 19.1435L13.2996 18.557L13.6195 19.7453Z" fill="#FA6D00"/>
<path d="M20.4522 11.9377C19.9418 11.5873 19.6828 10.9703 19.7971 10.3533C20.0789 8.93651 19.1648 7.5578 17.7404 7.26835C17.7252 7.26835 17.7023 7.26073 17.6871 7.26073C17.1006 7.16171 16.6131 6.74276 16.4303 6.17147C16.3846 6.03436 16.3313 5.89725 16.2703 5.76776C15.6229 4.47284 14.0537 3.94725 12.7588 4.59471C11.5324 5.20409 10.984 6.65897 11.502 7.92342C11.7686 8.5785 11.8981 9.17264 11.4486 9.80487C10.6107 10.9855 10.8926 12.6232 12.0732 13.4535C12.0809 13.4611 12.0961 13.4687 12.1037 13.4764C12.6141 13.8344 12.8578 14.459 12.7359 15.0683C12.4617 16.4851 13.391 17.8639 14.8154 18.1381C16.0951 18.3818 17.352 17.6582 17.7861 16.4318C19.0811 17.0793 20.6502 16.5461 21.2977 15.2588C21.8766 14.0933 21.5186 12.6842 20.4522 11.9377Z" fill="#598C44"/>
<path d="M26.3936 14.0324C26.0508 13.5144 26.0432 12.8441 26.3783 12.3185C27.1781 11.115 26.843 9.48495 25.6395 8.68515C25.6242 8.67753 25.609 8.6623 25.5938 8.65468C24.8473 8.18241 24.9006 7.5121 24.8397 6.74276C24.733 5.30312 23.4686 4.22148 22.0289 4.32812C20.6654 4.43476 19.6066 5.56972 19.6066 6.94081C19.6066 7.64921 19.5 8.24335 18.8525 8.6623C17.6338 9.43925 17.2758 11.0617 18.0604 12.2805C18.068 12.2881 18.0756 12.3033 18.0832 12.3109C18.4184 12.8365 18.4184 13.5068 18.068 14.0248C17.2834 15.2359 17.6262 16.8584 18.8373 17.6506C19.9266 18.359 21.3738 18.1609 22.227 17.1859C23.1867 18.2676 24.8397 18.3742 25.9213 17.4221C26.8963 16.5689 27.0943 15.1217 26.3936 14.0324Z" fill="#5F9548"/>
<path d="M30.4688 21.3906L23.1563 18.9531L27.1857 6.87226C27.6732 5.41737 29.1586 4.29003 30.7049 4.32812C31.6646 4.35097 32.5635 4.53378 33.3176 5.14316C34.5363 6.11816 35.0162 7.74823 34.5211 9.22597L30.4688 21.3906Z" fill="#FFB531"/>
<path d="M25.5938 15.2969V37.2344H7.3125V15.2969L9.14063 16.5156L10.9688 15.2969L12.7969 16.5156L14.625 15.2969L16.4531 16.5156L18.2813 15.2969L20.1094 16.5156L21.9375 15.2969L23.7656 16.5156L25.5938 15.2969Z" fill="#FFB531"/>
<path d="M25.5938 20.3471V37.2344H7.3125V33.54C14.0232 31.2853 20.6731 27.1797 25.5938 20.3471Z" fill="#FCAC1F"/>
<path d="M32.9063 15.2969V37.2344H25.5938V15.2969L27.4219 16.5156L29.25 15.2969L31.0781 16.5156L32.9063 15.2969Z" fill="#F98500"/>
<path d="M7.42676 39.6719C10.1191 39.6719 12.3018 37.4893 12.3018 34.7969C12.3018 32.1045 10.1191 29.9219 7.42676 29.9219C4.73437 29.9219 2.55176 32.1045 2.55176 34.7969C2.55176 37.4893 4.73437 39.6719 7.42676 39.6719Z" fill="#F35244"/>
<path d="M17.6719 26.875L18.2813 28.0937C17.5272 28.8478 17.2225 29.9447 17.4814 30.9883L17.6719 31.75H15.2344V30.8207C15.2344 29.1525 16.1789 27.6215 17.6719 26.875Z" fill="#5F9548"/>
<path d="M14.0994 39.6719C13.3301 39.6719 12.6445 39.1691 12.4236 38.4303L11.0525 33.8523C10.6717 32.5803 11.5096 31.1406 12.9188 31.1406C13.6043 31.1406 14.2365 31.4986 14.5869 32.0851L15.8438 34.1875V37.9275C15.8438 38.8873 15.0592 39.6719 14.0994 39.6719Z" fill="#FA9F0C"/>
<path d="M18.8068 39.6719C19.5762 39.6719 20.2617 39.1691 20.4826 38.4303L21.8537 33.8523C22.2422 32.565 21.3891 31.1406 19.9875 31.1406C19.302 31.1406 18.6697 31.4986 18.3193 32.0851L17.0625 34.1875V37.9275C17.0625 38.8873 17.8471 39.6719 18.8068 39.6719Z" fill="#FA9F0C"/>
<path d="M16.4531 31.1406C17.4662 31.1406 18.2813 31.9557 18.2813 32.9687V37.8437C18.2813 38.8568 17.4662 39.6719 16.4531 39.6719C15.44 39.6719 14.625 38.8568 14.625 37.8437V32.9687C14.625 31.9557 15.44 31.1406 16.4531 31.1406Z" fill="#FFB531"/>
<path d="M33.6984 4.67089C32.5711 3.76445 31.0248 3.49023 29.5547 3.91679C28.1227 4.33574 27.0486 5.34882 26.6068 6.68183L24.1465 14.0705L23.857 13.6439L22.8363 14.3219V11.8615L24.5273 10.7342L23.8494 9.72109L22.8287 10.399V7.60351H21.61V10.3914L20.5969 9.71347L19.919 10.7266L21.61 11.8539V14.3143L20.5969 13.6363L19.919 14.6494L20.8559 15.274L20.1018 15.7768L18.6088 14.7865C18.5402 14.7408 18.4717 14.7103 18.3955 14.6951C18.4412 14.5809 18.5022 14.4666 18.5707 14.36C19.043 13.6363 19.043 12.707 18.5783 11.9758C18.1518 11.3283 18.167 10.3609 18.6088 9.71347C18.7992 9.43925 19.5762 8.8832 19.7818 8.60898C20.1856 8.07577 20.2313 7.4664 20.277 6.9332C20.3074 6.51425 20.3379 6.14863 20.5207 5.86679C21.1072 4.92988 22.3488 4.64804 23.2857 5.23456C23.4838 5.35644 23.6514 5.5164 23.7961 5.6916C24.1236 6.10292 24.1541 6.51425 24.1922 7.07031C24.2074 7.26074 24.2227 7.4664 24.2455 7.67968L25.4566 7.52734C25.4338 7.34452 25.4186 7.16171 25.4109 6.98652C25.3652 6.32382 25.3119 5.64589 24.7559 4.93749C23.6514 3.53593 21.6252 3.2998 20.2236 4.39667C19.9342 4.62519 19.6828 4.89941 19.4848 5.21171C19.1496 5.74492 19.1039 6.32382 19.0582 6.82656C19.0506 6.94081 19.043 7.04745 19.0277 7.15409C18.6545 6.90273 18.2279 6.72753 17.7785 6.64374C17.4129 6.58281 17.1082 6.32382 16.9939 5.97343C16.7273 5.14316 16.1484 4.45761 15.3715 4.06152C14.6098 3.65781 13.7186 3.58163 12.8959 3.84824C11.6848 4.25195 10.8012 5.38691 10.6945 6.68945C10.6564 7.18456 10.7783 7.61874 10.9002 8.00722C10.3289 7.07031 9.33106 6.47617 8.23418 6.40761L8.25703 3.70351L7.03828 3.69589L7.02305 5.45546L6.2918 3.58163L5.17969 4.04628L5.91094 5.92011L4.70742 4.64042L3.82383 5.4707L5.67481 7.45117C4.66934 8.4871 4.4332 10.041 5.10352 11.3207L6.36797 13.7582L7.44961 13.1945L6.18516 10.757C5.64434 9.71347 6.04805 8.42617 7.0916 7.88534C8.13516 7.34452 9.42246 7.74824 9.96328 8.79179C10.0318 8.9289 10.0852 9.06601 10.1309 9.21835L10.1537 9.29452L8.18848 10.0639L8.63028 11.1988L10.4736 10.4828V10.4904C10.3594 10.9246 10.3289 11.374 10.4051 11.8234L9.07969 12.3414L9.52149 13.4764L10.8316 12.966C11.1363 13.4764 11.6619 13.9486 11.6619 13.9486L9.96328 14.6113L10.1613 15.1064L9.14824 15.7844L7.65528 14.7941C7.37344 14.6037 7.0002 14.6799 6.80977 14.9617C6.74121 15.0607 6.71074 15.1826 6.71074 15.2969V28.0937H7.92949V16.4318L8.81309 17.0184C9.01875 17.1555 9.28535 17.1555 9.49102 17.0184L10.984 16.0281L12.477 17.0184C12.6826 17.1555 12.9492 17.1555 13.1549 17.0184L14.6479 16.0281L16.1408 17.0184C16.3465 17.1555 16.6131 17.1555 16.8188 17.0184L18.3117 16.0281L19.8047 17.0184C20.0104 17.1555 20.277 17.1555 20.4826 17.0184L21.9756 16.0281L23.4686 17.0184C23.6742 17.1555 23.9408 17.1555 24.1465 17.0184L25.0301 16.4318V36.625H22.5926V37.8437H32.952C33.2871 37.8437 33.5613 37.5695 33.5613 37.2344V15.2969C33.5613 15.1141 33.4775 14.9465 33.3404 14.8322L35.1457 9.42402C35.6713 7.70253 35.1076 5.80585 33.6984 4.67089ZM17.5729 12.6613C17.6262 12.7451 17.6643 12.8365 17.6871 12.9355L17.2682 13.5525L16.3389 11.2674L17.1539 10.0639C16.9406 10.9398 17.0777 11.9148 17.5729 12.6613ZM13.3225 15.4416C13.4824 14.7941 13.3529 14.1162 12.9797 13.5678C12.6217 13.0498 12.0504 12.6918 11.7609 12.1281C11.6086 11.831 11.5477 11.4883 11.5857 11.1531C11.6772 10.4066 12.2408 9.78202 12.3246 9.03554C12.3856 8.4871 12.1647 7.9539 12.0504 7.41308C11.7838 6.21718 12.5379 5.00605 13.8252 4.94511C14.4498 4.92226 15.0439 5.18886 15.44 5.66874C15.7904 6.10292 15.9504 6.67421 16.3008 7.11601C16.5598 7.44355 16.9102 7.67968 17.3063 7.79394C17.6947 7.9082 18.1518 7.92343 18.4107 8.23574C17.9613 8.55566 17.5957 8.9746 17.3443 9.46972L16.476 8.89081L15.7904 9.88105L14.7393 7.31406L13.6195 7.77109L14.6631 10.3457L13.4748 10.1172L13.2311 11.3055L15.1887 11.7473L16.1408 13.9867L14.9525 13.7582L14.8078 14.4742C14.8002 14.4818 13.6348 15.2131 13.3225 15.4416ZM15.44 15.1064L16.6969 15.3654L16.7807 15.5711L16.4531 15.7844L15.44 15.1064ZM23.301 15.4721L23.7732 15.1521L23.5981 15.6701L23.301 15.4721ZM26.2031 16.4318L27.0867 17.0184C27.2924 17.1555 27.559 17.1555 27.7647 17.0184L28.6482 16.4318V33.3191L26.2107 35.7566V16.4318H26.2031ZM32.2969 16.4318V35.7566L29.8594 33.3191V16.4318L30.743 17.0184C30.9486 17.1555 31.2152 17.1555 31.4209 17.0184L32.2969 16.4318ZM29.25 34.4389L31.4361 36.625H27.0639L29.25 34.4389ZM33.9422 9.03554L31.8703 15.2512L31.0781 15.7768L29.5852 14.7865C29.3795 14.6494 29.1129 14.6494 28.9072 14.7865L27.4143 15.7768C27.4143 15.7768 25.8908 14.7637 25.8756 14.756C25.6775 14.6494 25.4338 14.6646 25.251 14.7865L25.1596 14.8475L27.757 7.06269C28.077 6.11054 28.8539 5.39453 29.8975 5.08222C30.9791 4.7623 32.1141 4.96035 32.9367 5.61542C33.9498 6.43808 34.3535 7.80156 33.9422 9.03554Z" fill="black"/>
<path d="M28.5291 8.61166L32.1868 8.00329L32.3866 9.20498L28.729 9.81335L28.5291 8.61166Z" fill="black"/>
<path d="M27.3093 12.266L30.9669 11.6576L31.1668 12.8593L27.5092 13.4677L27.3093 12.266Z" fill="black"/>
<path d="M19.9951 30.5312C19.3248 30.5236 18.6773 30.7902 18.2051 31.2701C18.1975 31.2625 18.1898 31.2549 18.1822 31.2396L18.0832 30.8359C18.0832 30.8283 18.0832 30.8283 18.0756 30.8207C17.8395 29.9904 18.3117 28.9393 18.7231 28.5279C18.9059 28.3451 18.9516 28.0557 18.8373 27.8271L18.2279 26.6084C18.0756 26.3037 17.71 26.1818 17.4129 26.3342C15.7066 27.1797 14.6326 28.924 14.6402 30.8207V31.1482C14.4955 31.0416 14.3356 30.9426 14.1756 30.8512C12.9949 30.2189 11.4639 30.615 10.7631 31.7271C10.3594 32.3746 10.2527 33.2506 10.4813 34.0199L11.2734 36.6631C10.2223 38.773 7.66289 39.6338 5.55293 38.5902C3.46582 37.5543 2.59746 35.033 3.60293 32.9307C3.61817 32.9002 3.6334 32.8697 3.64864 32.8393L3.67149 34.9111L4.89024 34.8959L4.85215 32.3594L7.28203 32.4736L7.34297 31.2549L5.22539 31.1559C5.85762 30.7674 6.58887 30.5541 7.32774 30.5312C8.21133 30.5084 9.07969 30.7598 9.81094 31.2549L10.4889 30.2418C9.11778 29.3201 7.40391 29.0687 5.82715 29.5486L6.08614 28.9393L4.96641 28.4594L4.12852 30.4094C4.06758 30.4551 3.99903 30.5084 3.93809 30.5617L2.0795 28.7031L1.21875 29.5639L3.09258 31.4377C3.0545 31.491 3.01641 31.5443 2.97832 31.5977L0.98262 32.4508L1.4625 33.5705L2.16328 33.2658C1.31778 36.1756 2.99356 39.2148 5.90332 40.0603C7.82285 40.6164 9.89473 40.0832 11.3115 38.6664C11.4563 38.5217 11.5934 38.3617 11.7229 38.2018L11.8447 38.5978C12.218 39.8471 13.5281 40.5478 14.7773 40.1746C14.9525 40.1213 15.1125 40.0527 15.2725 39.9613C16.0113 40.3727 16.9102 40.3727 17.649 39.9613C18.7764 40.6088 20.216 40.2127 20.8635 39.0853C20.9549 38.933 21.0234 38.7654 21.0768 38.5902L22.4479 34.0123C22.5316 33.7076 22.5697 33.3877 22.5545 33.0678C22.5469 31.6738 21.4043 30.5312 19.9951 30.5312ZM17.4205 27.7357L17.5576 28.01C17.0777 28.6727 16.735 29.64 16.7959 30.5541C16.6207 30.5236 16.1408 30.5008 15.8514 30.6074C15.9123 29.4572 16.4912 28.4061 17.4205 27.7357ZM13.0102 38.2551L11.6391 33.6771C11.5096 33.243 11.5705 32.725 11.7838 32.3822C12.1342 31.8186 12.9797 31.6053 13.5891 31.9328C13.8785 32.0852 13.9928 32.1918 14.107 32.3365C14.0537 32.5422 14.0232 32.7555 14.0232 32.9687V37.8437C14.0232 38.2627 14.1299 38.674 14.3356 39.0396C13.749 39.1615 13.1777 38.8187 13.0102 38.2551ZM15.2344 37.8437V32.9687C15.2344 32.2984 15.7828 31.75 16.4531 31.75C17.1234 31.75 17.6719 32.2984 17.6719 32.9687V37.8437C17.6719 38.5141 17.1234 39.0625 16.4531 39.0625C15.7828 39.0625 15.2344 38.5141 15.2344 37.8437ZM21.2748 33.6771L19.9037 38.2551C19.7361 38.8187 19.1572 39.1615 18.5783 39.0396C18.784 38.674 18.8906 38.2627 18.8906 37.8437V32.9687C18.8906 32.7783 18.8678 32.5955 18.8221 32.4127C18.982 32.1689 19.3477 31.75 19.9875 31.75C20.7264 31.75 21.3205 32.3518 21.3205 33.083C21.3357 33.2811 21.3205 33.4867 21.2748 33.6771Z" fill="black"/>
<path d="M55.505 21.21C54.441 21.21 53.447 21.014 52.523 20.622C51.599 20.23 50.787 19.691 50.087 19.005C49.387 18.305 48.834 17.5 48.428 16.59C48.036 15.68 47.84 14.7 47.84 13.65C47.84 12.6 48.036 11.62 48.428 10.71C48.834 9.8 49.387 9.002 50.087 8.316C50.787 7.616 51.599 7.07 52.523 6.678C53.447 6.286 54.441 6.09 55.505 6.09C56.163 6.09 56.8 6.16 57.416 6.3C58.032 6.44 58.599 6.65 59.117 6.93C59.327 7.042 59.481 7.196 59.579 7.392C59.691 7.574 59.747 7.763 59.747 7.959C59.747 8.295 59.635 8.596 59.411 8.862C59.187 9.128 58.9 9.261 58.55 9.261C58.438 9.261 58.319 9.247 58.193 9.219C58.081 9.191 57.969 9.149 57.857 9.093C57.507 8.939 57.136 8.82 56.744 8.736C56.352 8.652 55.939 8.61 55.505 8.61C54.595 8.61 53.762 8.841 53.006 9.303C52.264 9.751 51.669 10.36 51.221 11.13C50.787 11.886 50.57 12.726 50.57 13.65C50.57 14.56 50.787 15.4 51.221 16.17C51.669 16.94 52.264 17.556 53.006 18.018C53.762 18.466 54.595 18.69 55.505 18.69C55.925 18.69 56.387 18.648 56.891 18.564C57.395 18.48 57.808 18.368 58.13 18.228L57.941 18.858V15.267L58.298 15.582H55.967C55.603 15.582 55.295 15.463 55.043 15.225C54.805 14.987 54.686 14.686 54.686 14.322C54.686 13.958 54.805 13.657 55.043 13.419C55.295 13.181 55.603 13.062 55.967 13.062H59.411C59.775 13.062 60.076 13.188 60.314 13.44C60.552 13.678 60.671 13.979 60.671 14.343V18.795C60.671 19.075 60.601 19.306 60.461 19.488C60.335 19.67 60.188 19.817 60.02 19.929C59.376 20.321 58.669 20.636 57.899 20.874C57.143 21.098 56.345 21.21 55.505 21.21ZM64.2471 21C63.8831 21 63.5821 20.881 63.3441 20.643C63.1061 20.391 62.9871 20.083 62.9871 19.719V11.046C62.9871 10.682 63.1061 10.381 63.3441 10.143C63.5821 9.891 63.8831 9.765 64.2471 9.765C64.6111 9.765 64.9121 9.891 65.1501 10.143C65.3881 10.381 65.5071 10.682 65.5071 11.046V13.02L65.3601 11.613C65.5141 11.277 65.7101 10.983 65.9481 10.731C66.2001 10.465 66.4801 10.248 66.7881 10.08C67.0961 9.898 67.4251 9.765 67.7751 9.681C68.1251 9.597 68.4751 9.555 68.8251 9.555C69.2451 9.555 69.5951 9.674 69.8751 9.912C70.1691 10.15 70.3161 10.43 70.3161 10.752C70.3161 11.214 70.1971 11.55 69.9591 11.76C69.7211 11.956 69.4621 12.054 69.1821 12.054C68.9161 12.054 68.6711 12.005 68.4471 11.907C68.2371 11.809 67.9921 11.76 67.7121 11.76C67.4601 11.76 67.2011 11.823 66.9351 11.949C66.6831 12.061 66.4451 12.243 66.2211 12.495C66.0111 12.747 65.8361 13.062 65.6961 13.44C65.5701 13.804 65.5071 14.238 65.5071 14.742V19.719C65.5071 20.083 65.3881 20.391 65.1501 20.643C64.9121 20.881 64.6111 21 64.2471 21ZM82.5199 15.393C82.5199 16.541 82.2609 17.556 81.7429 18.438C81.2389 19.306 80.5529 19.985 79.6849 20.475C78.8309 20.965 77.8719 21.21 76.8079 21.21C75.7439 21.21 74.7779 20.965 73.9099 20.475C73.0559 19.985 72.3699 19.306 71.8519 18.438C71.3479 17.556 71.0959 16.541 71.0959 15.393C71.0959 14.245 71.3479 13.237 71.8519 12.369C72.3699 11.487 73.0559 10.801 73.9099 10.311C74.7779 9.807 75.7439 9.555 76.8079 9.555C77.8719 9.555 78.8309 9.807 79.6849 10.311C80.5529 10.801 81.2389 11.487 81.7429 12.369C82.2609 13.237 82.5199 14.245 82.5199 15.393ZM79.9999 15.393C79.9999 14.679 79.8529 14.063 79.5589 13.545C79.2789 13.013 78.8939 12.6 78.4039 12.306C77.9279 12.012 77.3959 11.865 76.8079 11.865C76.2199 11.865 75.6809 12.012 75.1909 12.306C74.7149 12.6 74.3299 13.013 74.0359 13.545C73.7559 14.063 73.6159 14.679 73.6159 15.393C73.6159 16.093 73.7559 16.709 74.0359 17.241C74.3299 17.759 74.7149 18.165 75.1909 18.459C75.6809 18.753 76.2199 18.9 76.8079 18.9C77.3959 18.9 77.9279 18.753 78.4039 18.459C78.8939 18.165 79.2789 17.759 79.5589 17.241C79.8529 16.709 79.9999 16.093 79.9999 15.393ZM89.7234 9.555C90.5214 9.555 91.2144 9.639 91.8024 9.807C92.4044 9.975 92.8664 10.213 93.1884 10.521C93.5244 10.815 93.6924 11.172 93.6924 11.592C93.6924 11.872 93.6084 12.138 93.4404 12.39C93.2724 12.628 93.0274 12.747 92.7054 12.747C92.4814 12.747 92.2924 12.719 92.1384 12.663C91.9984 12.593 91.8724 12.509 91.7604 12.411C91.6484 12.313 91.5154 12.222 91.3614 12.138C91.2214 12.054 91.0044 11.991 90.7104 11.949C90.4304 11.893 90.2204 11.865 90.0804 11.865C89.3664 11.865 88.7574 12.019 88.2534 12.327C87.7634 12.635 87.3854 13.055 87.1194 13.587C86.8534 14.105 86.7204 14.707 86.7204 15.393C86.7204 16.065 86.8534 16.667 87.1194 17.199C87.3994 17.717 87.7774 18.13 88.2534 18.438C88.7434 18.746 89.3034 18.9 89.9334 18.9C90.2834 18.9 90.5844 18.879 90.8364 18.837C91.0884 18.795 91.2984 18.732 91.4664 18.648C91.6624 18.536 91.8374 18.417 91.9914 18.291C92.1454 18.165 92.3764 18.102 92.6844 18.102C93.0484 18.102 93.3284 18.221 93.5244 18.459C93.7204 18.683 93.8184 18.963 93.8184 19.299C93.8184 19.649 93.6224 19.971 93.2304 20.265C92.8384 20.545 92.3204 20.776 91.6764 20.958C91.0464 21.126 90.3604 21.21 89.6184 21.21C88.5124 21.21 87.5534 20.958 86.7414 20.454C85.9294 19.936 85.2994 19.236 84.8514 18.354C84.4174 17.472 84.2004 16.485 84.2004 15.393C84.2004 14.245 84.4314 13.237 84.8934 12.369C85.3694 11.487 86.0204 10.801 86.8464 10.311C87.6864 9.807 88.6454 9.555 89.7234 9.555ZM100.928 21.21C99.7375 21.21 98.7015 20.965 97.8195 20.475C96.9515 19.971 96.2795 19.292 95.8035 18.438C95.3415 17.584 95.1105 16.618 95.1105 15.54C95.1105 14.28 95.3625 13.209 95.8665 12.327C96.3845 11.431 97.0565 10.745 97.8825 10.269C98.7085 9.793 99.5835 9.555 100.508 9.555C101.222 9.555 101.894 9.702 102.524 9.996C103.168 10.29 103.735 10.696 104.225 11.214C104.715 11.718 105.1 12.306 105.38 12.978C105.674 13.65 105.821 14.364 105.821 15.12C105.807 15.456 105.674 15.729 105.422 15.939C105.17 16.149 104.876 16.254 104.54 16.254H96.5175L95.8875 14.154H103.595L103.133 14.574V14.007C103.105 13.601 102.958 13.237 102.692 12.915C102.44 12.593 102.118 12.341 101.726 12.159C101.348 11.963 100.942 11.865 100.508 11.865C100.088 11.865 99.6955 11.921 99.3315 12.033C98.9675 12.145 98.6525 12.334 98.3865 12.6C98.1205 12.866 97.9105 13.223 97.7565 13.671C97.6025 14.119 97.5255 14.686 97.5255 15.372C97.5255 16.128 97.6795 16.772 97.9875 17.304C98.3095 17.822 98.7155 18.221 99.2055 18.501C99.7095 18.767 100.242 18.9 100.802 18.9C101.32 18.9 101.733 18.858 102.041 18.774C102.349 18.69 102.594 18.592 102.776 18.48C102.972 18.354 103.147 18.249 103.301 18.165C103.553 18.039 103.791 17.976 104.015 17.976C104.323 17.976 104.575 18.081 104.771 18.291C104.981 18.501 105.086 18.746 105.086 19.026C105.086 19.404 104.89 19.747 104.498 20.055C104.134 20.363 103.623 20.636 102.965 20.874C102.307 21.098 101.628 21.21 100.928 21.21ZM116.257 9.765C116.621 9.765 116.922 9.891 117.16 10.143C117.398 10.381 117.517 10.682 117.517 11.046V19.971C117.517 21.259 117.272 22.281 116.782 23.037C116.306 23.807 115.662 24.36 114.85 24.696C114.038 25.032 113.128 25.2 112.12 25.2C111.672 25.2 111.196 25.165 110.692 25.095C110.188 25.025 109.775 24.92 109.453 24.78C109.033 24.598 108.739 24.367 108.571 24.087C108.417 23.821 108.389 23.534 108.487 23.226C108.613 22.82 108.816 22.54 109.096 22.386C109.376 22.246 109.67 22.232 109.978 22.344C110.202 22.414 110.496 22.519 110.86 22.659C111.224 22.813 111.644 22.89 112.12 22.89C112.764 22.89 113.296 22.799 113.716 22.617C114.15 22.449 114.472 22.155 114.682 21.735C114.906 21.329 115.018 20.769 115.018 20.055V18.648L115.459 19.152C115.221 19.614 114.92 19.999 114.556 20.307C114.206 20.601 113.786 20.825 113.296 20.979C112.806 21.133 112.246 21.21 111.616 21.21C110.874 21.21 110.223 21.042 109.663 20.706C109.117 20.356 108.69 19.88 108.382 19.278C108.074 18.662 107.92 17.962 107.92 17.178V11.046C107.92 10.682 108.039 10.381 108.277 10.143C108.515 9.891 108.816 9.765 109.18 9.765C109.544 9.765 109.845 9.891 110.083 10.143C110.321 10.381 110.44 10.682 110.44 11.046V16.422C110.44 17.332 110.636 17.976 111.028 18.354C111.434 18.718 111.994 18.9 112.708 18.9C113.198 18.9 113.611 18.809 113.947 18.627C114.283 18.431 114.542 18.151 114.724 17.787C114.906 17.409 114.997 16.954 114.997 16.422V11.046C114.997 10.682 115.116 10.381 115.354 10.143C115.592 9.891 115.893 9.765 116.257 9.765ZM122.618 19.719C122.618 20.083 122.499 20.391 122.261 20.643C122.023 20.881 121.722 21 121.358 21C120.994 21 120.693 20.881 120.455 20.643C120.217 20.391 120.098 20.083 120.098 19.719V11.046C120.098 10.682 120.217 10.381 120.455 10.143C120.693 9.891 120.994 9.765 121.358 9.765C121.722 9.765 122.023 9.891 122.261 10.143C122.499 10.381 122.618 10.682 122.618 11.046V19.719ZM121.337 8.4C120.861 8.4 120.525 8.323 120.329 8.169C120.133 8.015 120.035 7.742 120.035 7.35V6.951C120.035 6.545 120.14 6.272 120.35 6.132C120.574 5.978 120.91 5.901 121.358 5.901C121.848 5.901 122.191 5.978 122.387 6.132C122.583 6.286 122.681 6.559 122.681 6.951V7.35C122.681 7.756 122.576 8.036 122.366 8.19C122.156 8.33 121.813 8.4 121.337 8.4ZM124.557 19.257C124.417 19.061 124.354 18.809 124.368 18.501C124.382 18.193 124.564 17.927 124.914 17.703C125.138 17.563 125.376 17.507 125.628 17.535C125.88 17.549 126.125 17.675 126.363 17.913C126.769 18.319 127.196 18.634 127.644 18.858C128.092 19.082 128.652 19.194 129.324 19.194C129.534 19.18 129.765 19.152 130.017 19.11C130.269 19.054 130.486 18.942 130.668 18.774C130.864 18.592 130.962 18.319 130.962 17.955C130.962 17.647 130.857 17.402 130.647 17.22C130.437 17.038 130.157 16.884 129.807 16.758C129.471 16.632 129.093 16.513 128.673 16.401C128.239 16.275 127.791 16.135 127.329 15.981C126.881 15.827 126.468 15.631 126.09 15.393C125.712 15.141 125.404 14.812 125.166 14.406C124.928 14 124.809 13.489 124.809 12.873C124.809 12.173 125.005 11.578 125.397 11.088C125.789 10.598 126.293 10.22 126.909 9.954C127.539 9.688 128.197 9.555 128.883 9.555C129.317 9.555 129.772 9.611 130.248 9.723C130.724 9.821 131.179 9.989 131.613 10.227C132.047 10.451 132.411 10.752 132.705 11.13C132.859 11.34 132.95 11.592 132.978 11.886C133.006 12.18 132.873 12.446 132.579 12.684C132.369 12.852 132.124 12.929 131.844 12.915C131.564 12.887 131.333 12.789 131.151 12.621C130.913 12.313 130.591 12.068 130.185 11.886C129.793 11.704 129.338 11.613 128.82 11.613C128.61 11.613 128.379 11.641 128.127 11.697C127.889 11.739 127.679 11.844 127.497 12.012C127.315 12.166 127.224 12.418 127.224 12.768C127.224 13.09 127.329 13.349 127.539 13.545C127.749 13.727 128.029 13.881 128.379 14.007C128.743 14.119 129.128 14.231 129.534 14.343C129.954 14.455 130.381 14.588 130.815 14.742C131.249 14.896 131.648 15.099 132.012 15.351C132.376 15.603 132.67 15.932 132.894 16.338C133.118 16.73 133.23 17.234 133.23 17.85C133.23 18.564 133.02 19.173 132.6 19.677C132.18 20.181 131.655 20.566 131.025 20.832C130.395 21.084 129.751 21.21 129.093 21.21C128.267 21.21 127.441 21.07 126.615 20.79C125.789 20.496 125.103 19.985 124.557 19.257ZM141.24 9.555C142.248 9.555 143.011 9.772 143.529 10.206C144.061 10.64 144.425 11.221 144.621 11.949C144.817 12.663 144.915 13.461 144.915 14.343V19.719C144.915 20.083 144.796 20.391 144.558 20.643C144.32 20.881 144.019 21 143.655 21C143.291 21 142.99 20.881 142.752 20.643C142.514 20.391 142.395 20.083 142.395 19.719V14.343C142.395 13.881 142.339 13.468 142.227 13.104C142.115 12.726 141.912 12.425 141.618 12.201C141.324 11.977 140.904 11.865 140.358 11.865C139.826 11.865 139.371 11.977 138.993 12.201C138.615 12.425 138.328 12.726 138.132 13.104C137.95 13.468 137.859 13.881 137.859 14.343V19.719C137.859 20.083 137.74 20.391 137.502 20.643C137.264 20.881 136.963 21 136.599 21C136.235 21 135.934 20.881 135.696 20.643C135.458 20.391 135.339 20.083 135.339 19.719V6.741C135.339 6.377 135.458 6.076 135.696 5.838C135.934 5.586 136.235 5.46 136.599 5.46C136.963 5.46 137.264 5.586 137.502 5.838C137.74 6.076 137.859 6.377 137.859 6.741V11.949L137.544 11.886C137.67 11.648 137.845 11.396 138.069 11.13C138.293 10.85 138.566 10.591 138.888 10.353C139.21 10.115 139.567 9.926 139.959 9.786C140.351 9.632 140.778 9.555 141.24 9.555Z" fill="#3BB77E"/>
<path d="M52.698 40.14C51.9793 40.14 51.312 40.014 50.696 39.762C50.0893 39.5007 49.5527 39.1413 49.086 38.684C48.6287 38.2267 48.2693 37.6947 48.008 37.088C47.756 36.472 47.63 35.8093 47.63 35.1C47.63 34.3813 47.756 33.7187 48.008 33.112C48.2693 32.496 48.6287 31.9593 49.086 31.502C49.5527 31.0447 50.0893 30.69 50.696 30.438C51.312 30.186 51.9793 30.06 52.698 30.06C53.174 30.06 53.6313 30.116 54.07 30.228C54.518 30.3307 54.924 30.494 55.288 30.718C55.3813 30.7647 55.4467 30.83 55.484 30.914C55.5307 30.998 55.554 31.0867 55.554 31.18C55.554 31.3387 55.498 31.474 55.386 31.586C55.2833 31.698 55.162 31.754 55.022 31.754C54.966 31.754 54.91 31.7447 54.854 31.726C54.8073 31.7073 54.756 31.6887 54.7 31.67C54.4107 31.5207 54.098 31.404 53.762 31.32C53.426 31.2267 53.0713 31.18 52.698 31.18C51.9607 31.18 51.298 31.3527 50.71 31.698C50.1313 32.0433 49.674 32.51 49.338 33.098C49.002 33.686 48.834 34.3533 48.834 35.1C48.834 35.8373 49.002 36.5047 49.338 37.102C49.674 37.69 50.1313 38.1567 50.71 38.502C51.298 38.8473 51.9607 39.02 52.698 39.02C53.0713 39.02 53.454 38.9687 53.846 38.866C54.2473 38.7633 54.588 38.6327 54.868 38.474L54.77 38.81V35.856L54.994 36.052H52.852C52.6933 36.052 52.558 36.0007 52.446 35.898C52.3433 35.786 52.292 35.6507 52.292 35.492C52.292 35.3333 52.3433 35.2027 52.446 35.1C52.558 34.988 52.6933 34.932 52.852 34.932H55.4C55.568 34.932 55.7033 34.988 55.806 35.1C55.9087 35.212 55.96 35.3473 55.96 35.506V38.74C55.96 38.852 55.932 38.95 55.876 39.034C55.8293 39.118 55.764 39.188 55.68 39.244C55.26 39.5147 54.7933 39.734 54.28 39.902C53.776 40.0607 53.2487 40.14 52.698 40.14ZM58.6104 40C58.433 40 58.279 39.944 58.1484 39.832C58.027 39.72 57.9664 39.5847 57.9664 39.426V30.76C57.9664 30.6013 58.0177 30.4707 58.1204 30.368C58.2324 30.256 58.3677 30.2 58.5264 30.2H62.3904C62.913 30.2 63.3844 30.3213 63.8044 30.564C64.2244 30.7973 64.5557 31.124 64.7984 31.544C65.0504 31.9547 65.1764 32.4307 65.1764 32.972C65.1764 33.364 65.1017 33.7327 64.9524 34.078C64.803 34.414 64.5977 34.708 64.3364 34.96C64.075 35.2027 63.7764 35.3893 63.4404 35.52L63.1324 35.296C63.4497 35.3707 63.7344 35.506 63.9864 35.702C64.2384 35.8887 64.4437 36.1313 64.6024 36.43C64.761 36.7193 64.845 37.06 64.8544 37.452C64.873 37.7973 64.8964 38.0727 64.9244 38.278C64.9524 38.4833 64.9944 38.6467 65.0504 38.768C65.1064 38.88 65.1857 38.9687 65.2884 39.034C65.419 39.118 65.503 39.23 65.5404 39.37C65.587 39.51 65.5637 39.6453 65.4704 39.776C65.4144 39.86 65.335 39.9207 65.2324 39.958C65.1297 39.986 65.027 39.9953 64.9244 39.986C64.8217 39.9767 64.733 39.9487 64.6584 39.902C64.509 39.818 64.3644 39.6967 64.2244 39.538C64.0844 39.37 63.9677 39.132 63.8744 38.824C63.781 38.516 63.7344 38.096 63.7344 37.564C63.7344 37.2653 63.6877 37.018 63.5944 36.822C63.501 36.626 63.375 36.4673 63.2164 36.346C63.0577 36.2247 62.8804 36.1407 62.6844 36.094C62.4884 36.0473 62.2877 36.024 62.0824 36.024H58.9604L59.1284 35.772V39.426C59.1284 39.5847 59.0817 39.72 58.9884 39.832C58.895 39.944 58.769 40 58.6104 40ZM58.9604 35.016H62.3904C62.661 34.9973 62.913 34.904 63.1464 34.736C63.389 34.568 63.585 34.3347 63.7344 34.036C63.893 33.728 63.9724 33.3827 63.9724 33C63.9724 32.5053 63.8137 32.0947 63.4964 31.768C63.1884 31.4413 62.7964 31.278 62.3204 31.278H59.0164L59.1284 31.012V35.268L58.9604 35.016ZM76.1246 35.1C76.1246 35.8187 76.0079 36.486 75.7746 37.102C75.5413 37.7087 75.2146 38.2407 74.7946 38.698C74.3746 39.1553 73.8753 39.51 73.2966 39.762C72.7179 40.014 72.0879 40.14 71.4066 40.14C70.7159 40.14 70.0813 40.014 69.5026 39.762C68.9333 39.51 68.4386 39.1553 68.0186 38.698C67.5986 38.2407 67.2719 37.7087 67.0386 37.102C66.8053 36.486 66.6886 35.8187 66.6886 35.1C66.6886 34.372 66.8053 33.7047 67.0386 33.098C67.2719 32.482 67.5986 31.95 68.0186 31.502C68.4386 31.0447 68.9333 30.69 69.5026 30.438C70.0813 30.186 70.7159 30.06 71.4066 30.06C72.0879 30.06 72.7179 30.186 73.2966 30.438C73.8753 30.69 74.3746 31.0447 74.7946 31.502C75.2146 31.95 75.5413 32.482 75.7746 33.098C76.0079 33.7047 76.1246 34.372 76.1246 35.1ZM74.9206 35.1C74.9206 34.3347 74.7666 33.658 74.4586 33.07C74.1599 32.482 73.7493 32.02 73.2266 31.684C72.7039 31.348 72.0973 31.18 71.4066 31.18C70.7159 31.18 70.1046 31.348 69.5726 31.684C69.0499 32.02 68.6393 32.482 68.3406 33.07C68.0419 33.658 67.8926 34.3347 67.8926 35.1C67.8926 35.856 68.0419 36.5327 68.3406 37.13C68.6393 37.718 69.0499 38.18 69.5726 38.516C70.1046 38.852 70.7159 39.02 71.4066 39.02C72.0973 39.02 72.7039 38.852 73.2266 38.516C73.7493 38.18 74.1599 37.718 74.4586 37.13C74.7666 36.5327 74.9206 35.856 74.9206 35.1ZM85.038 30.844C85.1967 30.928 85.2853 31.054 85.304 31.222C85.332 31.39 85.29 31.544 85.178 31.684C85.094 31.8053 84.9867 31.8707 84.856 31.88C84.7253 31.8893 84.5947 31.8613 84.464 31.796C84.156 31.6093 83.8247 31.4647 83.47 31.362C83.1153 31.25 82.742 31.194 82.35 31.194C81.7993 31.194 81.2953 31.292 80.838 31.488C80.3807 31.6747 79.984 31.9407 79.648 32.286C79.312 32.6313 79.0507 33.042 78.864 33.518C78.6773 33.994 78.584 34.5213 78.584 35.1C78.584 35.716 78.682 36.2667 78.878 36.752C79.074 37.2373 79.34 37.6527 79.676 37.998C80.0213 38.334 80.418 38.5907 80.866 38.768C81.3233 38.9453 81.818 39.034 82.35 39.034C82.7327 39.034 83.1013 38.9827 83.456 38.88C83.8107 38.7773 84.1467 38.628 84.464 38.432C84.5947 38.3667 84.7253 38.3433 84.856 38.362C84.9867 38.3807 85.0987 38.446 85.192 38.558C85.304 38.7073 85.346 38.866 85.318 39.034C85.29 39.1927 85.2013 39.3093 85.052 39.384C84.8187 39.524 84.5527 39.6547 84.254 39.776C83.9553 39.888 83.6427 39.9767 83.316 40.042C82.9987 40.1073 82.6767 40.14 82.35 40.14C81.678 40.14 81.0433 40.0233 80.446 39.79C79.8487 39.5567 79.3213 39.2207 78.864 38.782C78.4067 38.3433 78.0427 37.816 77.772 37.2C77.5107 36.5747 77.38 35.8747 77.38 35.1C77.38 34.372 77.506 33.7047 77.758 33.098C78.01 32.4913 78.36 31.964 78.808 31.516C79.2653 31.068 79.7927 30.718 80.39 30.466C80.9967 30.214 81.65 30.088 82.35 30.088C82.8353 30.088 83.3067 30.1533 83.764 30.284C84.2307 30.4147 84.6553 30.6013 85.038 30.844ZM87.5654 30.2H92.5494C92.7081 30.2 92.8434 30.2513 92.9554 30.354C93.0674 30.4567 93.1234 30.5873 93.1234 30.746C93.1234 30.9047 93.0674 31.0353 92.9554 31.138C92.8434 31.2313 92.7081 31.278 92.5494 31.278H88.0414L88.1674 31.04V34.582L88.0274 34.428H91.9194C92.0781 34.428 92.2134 34.4793 92.3254 34.582C92.4374 34.6847 92.4934 34.8153 92.4934 34.974C92.4934 35.1327 92.4374 35.2633 92.3254 35.366C92.2134 35.4593 92.0781 35.506 91.9194 35.506H88.0694L88.1674 35.38V39.006L88.0834 38.908H92.5494C92.7081 38.908 92.8434 38.964 92.9554 39.076C93.0674 39.188 93.1234 39.314 93.1234 39.454C93.1234 39.6127 93.0674 39.7433 92.9554 39.846C92.8434 39.9487 92.7081 40 92.5494 40H87.5654C87.4068 40 87.2714 39.944 87.1594 39.832C87.0568 39.72 87.0054 39.5847 87.0054 39.426V30.76C87.0054 30.6013 87.0568 30.4707 87.1594 30.368C87.2714 30.256 87.4068 30.2 87.5654 30.2ZM95.6338 40C95.4565 40 95.3025 39.944 95.1718 39.832C95.0505 39.72 94.9898 39.5847 94.9898 39.426V30.76C94.9898 30.6013 95.0411 30.4707 95.1438 30.368C95.2558 30.256 95.3911 30.2 95.5498 30.2H99.4138C99.9365 30.2 100.408 30.3213 100.828 30.564C101.248 30.7973 101.579 31.124 101.822 31.544C102.074 31.9547 102.2 32.4307 102.2 32.972C102.2 33.364 102.125 33.7327 101.976 34.078C101.826 34.414 101.621 34.708 101.36 34.96C101.098 35.2027 100.8 35.3893 100.464 35.52L100.156 35.296C100.473 35.3707 100.758 35.506 101.01 35.702C101.262 35.8887 101.467 36.1313 101.626 36.43C101.784 36.7193 101.868 37.06 101.878 37.452C101.896 37.7973 101.92 38.0727 101.948 38.278C101.976 38.4833 102.018 38.6467 102.074 38.768C102.13 38.88 102.209 38.9687 102.312 39.034C102.442 39.118 102.526 39.23 102.564 39.37C102.61 39.51 102.587 39.6453 102.494 39.776C102.438 39.86 102.358 39.9207 102.256 39.958C102.153 39.986 102.05 39.9953 101.948 39.986C101.845 39.9767 101.756 39.9487 101.682 39.902C101.532 39.818 101.388 39.6967 101.248 39.538C101.108 39.37 100.991 39.132 100.898 38.824C100.804 38.516 100.758 38.096 100.758 37.564C100.758 37.2653 100.711 37.018 100.618 36.822C100.524 36.626 100.398 36.4673 100.24 36.346C100.081 36.2247 99.9038 36.1407 99.7078 36.094C99.5118 36.0473 99.3111 36.024 99.1058 36.024H95.9838L96.1518 35.772V39.426C96.1518 39.5847 96.1051 39.72 96.0118 39.832C95.9185 39.944 95.7925 40 95.6338 40ZM95.9838 35.016H99.4138C99.6845 34.9973 99.9365 34.904 100.17 34.736C100.412 34.568 100.608 34.3347 100.758 34.036C100.916 33.728 100.996 33.3827 100.996 33C100.996 32.5053 100.837 32.0947 100.52 31.768C100.212 31.4413 99.8198 31.278 99.3438 31.278H96.0398L96.1518 31.012V35.268L95.9838 35.016ZM110.141 30.144C110.3 30.144 110.431 30.2047 110.533 30.326C110.645 30.438 110.701 30.5687 110.701 30.718C110.701 30.774 110.692 30.8347 110.673 30.9C110.664 30.956 110.641 31.012 110.603 31.068L107.355 35.59L107.537 34.904V39.426C107.537 39.5847 107.481 39.72 107.369 39.832C107.267 39.944 107.141 40 106.991 40C106.823 40 106.683 39.944 106.571 39.832C106.469 39.72 106.417 39.5847 106.417 39.426V35.016L106.515 35.38L103.365 31.124C103.309 31.0493 103.267 30.9793 103.239 30.914C103.221 30.8393 103.211 30.7693 103.211 30.704C103.211 30.5453 103.277 30.4147 103.407 30.312C103.538 30.2 103.669 30.144 103.799 30.144C103.986 30.144 104.14 30.2327 104.261 30.41L107.159 34.386L106.893 34.344L109.679 30.424C109.801 30.2373 109.955 30.144 110.141 30.144Z" fill="#ADADAD"/>
</svg>
