<svg width="173" height="130" viewBox="0 0 173 130" fill="none" xmlns="http://www.w3.org/2000/svg">
<path d="M165.388 37.415C157.002 25.4943 140.649 19.7642 127.972 24.7312C119.586 3.67408 89.5593 -3.96024 67.0461 1.91761C41.2693 8.64791 29.7825 34.1736 36.4759 56.8325C29.4087 55.3028 21.722 56.4269 15.2536 60.1426C2.50015 67.4744 -1.73946 83.2931 1.94294 96.8774C5.85377 111.304 18.1608 122.472 33.1396 124.29C45.6854 125.813 57.0545 121.327 67.0703 114.549C77.7819 131.089 103.919 132.643 122.691 127.157C134.669 123.658 145.477 116.594 152.409 106.162C156.123 100.576 159.283 92.9829 159.099 85.9433C175.871 78.6252 175.514 51.8036 165.391 37.415H165.388Z" fill="#B8E9F5"/>
</svg>
