<svg width="190" height="130" viewBox="0 0 190 130" fill="none" xmlns="http://www.w3.org/2000/svg">
<path d="M189.229 72.041C187.437 62.7076 182.396 54.7093 175.655 48.3778C176.954 29.9092 162.514 12.6139 144.134 6.32691C128.578 1.00684 112.435 4.80574 101.883 14.92C87.4073 -6.35226 44.7722 -2.58573 27.4843 11.8978C14.3434 22.9061 10.3906 41.3625 14.0682 58.051C8.31504 62.3071 3.93743 68.5212 1.75672 75.2735C-5.74023 98.4917 15.3184 119.808 38.6144 115.84C40.1963 115.569 41.7621 115.16 43.2914 114.634C47.7176 118.113 52.6939 120.957 57.9171 123.069C75.5206 130.186 96.292 130.845 114.992 129.328C133.53 127.827 154.556 124.635 170.169 113.756C183.739 104.301 192.45 88.8184 189.233 72.0369L189.229 72.041Z" fill="#B8E9F5"/>
</svg>
