<svg width="195" height="131" viewBox="0 0 195 131" fill="none" xmlns="http://www.w3.org/2000/svg">
<path d="M189.813 62.1117C183.24 52.3208 171.076 48.5063 159.995 50.494C160.588 25.0463 140.222 1.1707 112.76 0.517082C83.1827 -0.19017 60.0344 22.4922 56.0758 49.5555C39.4771 35.8998 12.2128 38.8495 2.70675 62.219C-7.69422 87.794 14.2742 110.704 38.2805 108.485C41.2805 121.538 56.0925 129.576 69.9192 130.387C87.5837 131.426 104.91 125.309 119.021 114.961C137.085 130.997 166.427 126.264 178.551 104.584C192.917 96.224 199.752 76.9204 189.81 62.1084L189.813 62.1117Z" fill="#B8E9F5"/>
</svg>
