<svg width="171" height="131" viewBox="0 0 171 131" fill="none" xmlns="http://www.w3.org/2000/svg">
<path d="M169.113 73.7216C165.635 58.6326 154.91 43.5889 139.002 39.3247C130.681 37.0948 121.419 38.1138 113.817 41.9802C113.999 24.4485 105.152 6.7528 86.614 1.59518C73.8176 -1.9677 60.4595 3.43071 53.7519 13.4668C45.0624 9.20947 33.8937 9.3665 25.2614 14.053C8.57278 23.119 2.00108 43.7285 0.348313 61.1242C-1.27941 78.2232 3.8184 96.8262 18.4285 107.455C28.9926 115.14 43.449 118.106 55.6765 113.496C65.0351 125.898 81.4733 131.956 97.2783 130.197C108.272 128.972 123.93 123.7 132.154 114.449C138.508 117.551 146.407 117.931 153.301 115.154C169.649 108.558 172.568 88.7059 169.116 73.7216H169.113Z" fill="#B8E9F5"/>
</svg>
