<svg width="172" height="130" viewBox="0 0 172 130" fill="none" xmlns="http://www.w3.org/2000/svg">
<path d="M164.768 37.414C156.382 25.4933 140.03 19.7633 127.352 24.7302C118.967 3.67311 88.9397 -3.96121 66.4265 1.91663C40.6496 8.64693 29.1629 34.1726 35.8563 56.8315C28.7891 55.3019 21.1024 56.4259 14.634 60.1416C1.88052 67.4735 -2.35909 83.2921 1.32332 96.8764C5.23414 111.303 17.5411 122.471 32.52 124.289C45.0658 125.812 56.4348 121.326 66.4507 114.548C77.1622 131.088 103.299 132.642 122.071 127.156C134.049 123.657 144.858 116.593 151.79 106.161C155.503 100.575 158.663 92.9819 158.48 85.9423C175.251 78.6242 174.895 51.8027 164.772 37.414H164.768Z" fill="#B8E9F5"/>
</svg>
